<mxfile host="app.diagrams.net" modified="2024-01-25T21:03:46.173Z" agent="Mozilla/5.0 (Windows NT 10.0; Win64; x64) AppleWebKit/537.36 (KHTML, like Gecko) Chrome/120.0.0.0 Safari/537.36" etag="ti5fYv2NthnZ1escHHDH" version="23.0.2" type="github">
  <diagram name="Page-1" id="2YBvvXClWsGukQMizWep">
    <mxGraphModel dx="1509" dy="785" grid="1" gridSize="10" guides="1" tooltips="1" connect="1" arrows="1" fold="1" page="1" pageScale="1" pageWidth="850" pageHeight="300" math="0" shadow="0">
      <root>
        <mxCell id="0" />
        <mxCell id="1" parent="0" />
        <mxCell id="QNOYLSBlTzt8TE4NTCWA-2" value="Initial Idea" style="rounded=0;whiteSpace=wrap;html=1;" vertex="1" parent="1">
          <mxGeometry x="70" y="142.5" width="120" height="30" as="geometry" />
        </mxCell>
        <mxCell id="QNOYLSBlTzt8TE4NTCWA-11" style="edgeStyle=orthogonalEdgeStyle;rounded=0;orthogonalLoop=1;jettySize=auto;html=1;exitX=1;exitY=0.5;exitDx=0;exitDy=0;entryX=0;entryY=0.5;entryDx=0;entryDy=0;" edge="1" parent="1" source="QNOYLSBlTzt8TE4NTCWA-3" target="QNOYLSBlTzt8TE4NTCWA-10">
          <mxGeometry relative="1" as="geometry" />
        </mxCell>
        <mxCell id="QNOYLSBlTzt8TE4NTCWA-3" value="Storyboard/Sequential sketches" style="rounded=0;whiteSpace=wrap;html=1;" vertex="1" parent="1">
          <mxGeometry x="230" y="130" width="130" height="60" as="geometry" />
        </mxCell>
        <mxCell id="QNOYLSBlTzt8TE4NTCWA-7" style="edgeStyle=orthogonalEdgeStyle;rounded=0;orthogonalLoop=1;jettySize=auto;html=1;entryX=0.25;entryY=0;entryDx=0;entryDy=0;" edge="1" parent="1" source="QNOYLSBlTzt8TE4NTCWA-6" target="QNOYLSBlTzt8TE4NTCWA-3">
          <mxGeometry relative="1" as="geometry" />
        </mxCell>
        <mxCell id="QNOYLSBlTzt8TE4NTCWA-6" value="Photo reference for posing" style="rounded=0;whiteSpace=wrap;html=1;" vertex="1" parent="1">
          <mxGeometry x="130" y="65" width="120" height="30" as="geometry" />
        </mxCell>
        <mxCell id="QNOYLSBlTzt8TE4NTCWA-9" style="edgeStyle=orthogonalEdgeStyle;rounded=0;orthogonalLoop=1;jettySize=auto;html=1;exitX=0.5;exitY=0;exitDx=0;exitDy=0;entryX=0.25;entryY=1;entryDx=0;entryDy=0;" edge="1" parent="1" source="QNOYLSBlTzt8TE4NTCWA-8" target="QNOYLSBlTzt8TE4NTCWA-3">
          <mxGeometry relative="1" as="geometry" />
        </mxCell>
        <mxCell id="QNOYLSBlTzt8TE4NTCWA-8" value="Video reference for flow and sequences" style="rounded=0;whiteSpace=wrap;html=1;" vertex="1" parent="1">
          <mxGeometry x="130" y="225" width="120" height="30" as="geometry" />
        </mxCell>
        <mxCell id="QNOYLSBlTzt8TE4NTCWA-22" style="edgeStyle=orthogonalEdgeStyle;rounded=0;orthogonalLoop=1;jettySize=auto;html=1;entryX=0;entryY=0.5;entryDx=0;entryDy=0;" edge="1" parent="1" source="QNOYLSBlTzt8TE4NTCWA-10" target="QNOYLSBlTzt8TE4NTCWA-19">
          <mxGeometry relative="1" as="geometry" />
        </mxCell>
        <mxCell id="QNOYLSBlTzt8TE4NTCWA-10" value="Compile Reference" style="rounded=0;whiteSpace=wrap;html=1;" vertex="1" parent="1">
          <mxGeometry x="380" y="142.5" width="120" height="35" as="geometry" />
        </mxCell>
        <mxCell id="QNOYLSBlTzt8TE4NTCWA-16" style="edgeStyle=orthogonalEdgeStyle;rounded=0;orthogonalLoop=1;jettySize=auto;html=1;exitX=0.5;exitY=1;exitDx=0;exitDy=0;entryX=0.25;entryY=0;entryDx=0;entryDy=0;" edge="1" parent="1" source="QNOYLSBlTzt8TE4NTCWA-12" target="QNOYLSBlTzt8TE4NTCWA-10">
          <mxGeometry relative="1" as="geometry" />
        </mxCell>
        <mxCell id="QNOYLSBlTzt8TE4NTCWA-12" value="Photo reference" style="rounded=0;whiteSpace=wrap;html=1;" vertex="1" parent="1">
          <mxGeometry x="330" y="65" width="120" height="30" as="geometry" />
        </mxCell>
        <mxCell id="QNOYLSBlTzt8TE4NTCWA-14" style="edgeStyle=orthogonalEdgeStyle;rounded=0;orthogonalLoop=1;jettySize=auto;html=1;entryX=0.25;entryY=1;entryDx=0;entryDy=0;" edge="1" parent="1" source="QNOYLSBlTzt8TE4NTCWA-13" target="QNOYLSBlTzt8TE4NTCWA-10">
          <mxGeometry relative="1" as="geometry" />
        </mxCell>
        <mxCell id="QNOYLSBlTzt8TE4NTCWA-13" value="Find video reference" style="rounded=0;whiteSpace=wrap;html=1;" vertex="1" parent="1">
          <mxGeometry x="330" y="225" width="120" height="30" as="geometry" />
        </mxCell>
        <mxCell id="QNOYLSBlTzt8TE4NTCWA-18" style="edgeStyle=orthogonalEdgeStyle;rounded=0;orthogonalLoop=1;jettySize=auto;html=1;entryX=0.75;entryY=1;entryDx=0;entryDy=0;" edge="1" parent="1" source="QNOYLSBlTzt8TE4NTCWA-17" target="QNOYLSBlTzt8TE4NTCWA-10">
          <mxGeometry relative="1" as="geometry" />
        </mxCell>
        <mxCell id="QNOYLSBlTzt8TE4NTCWA-17" value="Film video reference" style="rounded=0;whiteSpace=wrap;html=1;" vertex="1" parent="1">
          <mxGeometry x="470" y="225" width="120" height="30" as="geometry" />
        </mxCell>
        <mxCell id="QNOYLSBlTzt8TE4NTCWA-25" style="edgeStyle=orthogonalEdgeStyle;rounded=0;orthogonalLoop=1;jettySize=auto;html=1;exitX=1;exitY=0.5;exitDx=0;exitDy=0;entryX=0;entryY=0.5;entryDx=0;entryDy=0;" edge="1" parent="1" source="QNOYLSBlTzt8TE4NTCWA-19" target="QNOYLSBlTzt8TE4NTCWA-20">
          <mxGeometry relative="1" as="geometry" />
        </mxCell>
        <mxCell id="QNOYLSBlTzt8TE4NTCWA-19" value="Blocking" style="rounded=0;whiteSpace=wrap;html=1;" vertex="1" parent="1">
          <mxGeometry x="520" y="142.5" width="70" height="35" as="geometry" />
        </mxCell>
        <mxCell id="QNOYLSBlTzt8TE4NTCWA-26" style="edgeStyle=orthogonalEdgeStyle;rounded=0;orthogonalLoop=1;jettySize=auto;html=1;exitX=1;exitY=0.5;exitDx=0;exitDy=0;entryX=0;entryY=0.5;entryDx=0;entryDy=0;" edge="1" parent="1" source="QNOYLSBlTzt8TE4NTCWA-20" target="QNOYLSBlTzt8TE4NTCWA-21">
          <mxGeometry relative="1" as="geometry" />
        </mxCell>
        <mxCell id="QNOYLSBlTzt8TE4NTCWA-20" value="Spline" style="rounded=0;whiteSpace=wrap;html=1;" vertex="1" parent="1">
          <mxGeometry x="610" y="142.5" width="49" height="35" as="geometry" />
        </mxCell>
        <mxCell id="QNOYLSBlTzt8TE4NTCWA-21" value="Polish" style="rounded=0;whiteSpace=wrap;html=1;" vertex="1" parent="1">
          <mxGeometry x="670" y="142.5" width="50" height="35" as="geometry" />
        </mxCell>
        <mxCell id="QNOYLSBlTzt8TE4NTCWA-28" value="&lt;h1&gt;Reference Flow&lt;/h1&gt;" style="text;html=1;strokeColor=none;fillColor=none;spacing=5;spacingTop=-20;whiteSpace=wrap;overflow=hidden;rounded=0;" vertex="1" parent="1">
          <mxGeometry x="330" y="10" width="190" height="120" as="geometry" />
        </mxCell>
        <mxCell id="QNOYLSBlTzt8TE4NTCWA-30" style="edgeStyle=orthogonalEdgeStyle;rounded=0;orthogonalLoop=1;jettySize=auto;html=1;exitX=1;exitY=0.5;exitDx=0;exitDy=0;entryX=0;entryY=0.459;entryDx=0;entryDy=0;entryPerimeter=0;" edge="1" parent="1" source="QNOYLSBlTzt8TE4NTCWA-2" target="QNOYLSBlTzt8TE4NTCWA-3">
          <mxGeometry relative="1" as="geometry" />
        </mxCell>
      </root>
    </mxGraphModel>
  </diagram>
</mxfile>
